<?xml version="1.0" encoding="utf-8"?>
<!-- Generator: Adobe Illustrator 24.1.2, SVG Export Plug-In . SVG Version: 6.00 Build 0)  -->
<svg version="1.1" id="Capa_1" xmlns="http://www.w3.org/2000/svg" xmlns:xlink="http://www.w3.org/1999/xlink" x="0px" y="0px"
	 viewBox="0 0 512 512" style="enable-background:new 0 0 512 512;" xml:space="preserve">
<g>
	<g>
		<g>
			<path d="M345.8,492c0.8-2.2,1.3-4.6,1.5-7l13.1-137.2l5.6-58.4c0,0,0,0,0,0l7.3-76.3h9.8c9.3,0,16.9-7.6,16.9-16.9v-7.7
				c0-18.5-15-33.5-33.5-33.5h-84.9V91.9c0-0.8,0.4-1.6,1-2.1l52.7-40.9c7.5-5.8,11.3-14.8,10.4-24.3c-0.7-6.8-3.9-13.1-9-17.6
				c-10.1-8.9-24.6-9.2-35-1.1L250.1,46c-12.5,9.7-19.6,24.4-19.6,40.2v68.9h-84.9c-18.5,0-33.5,15-33.5,33.5v7.7
				c0,9.3,7.6,16.9,16.9,16.9h9.8l7.3,76.3c0,0,0,0,0,0l5.9,62.1L164.7,485c0.2,2.4,0.8,4.8,1.5,7 M166.2,492
				c1.5,5.4,6.2,20,11.9,20h16.3h123.2h16.3c5.7,0,10.5-14.3,11.9-20 M250.5,86.2L250.5,86.2c0-9.6,4.3-18.5,11.9-24.4l51.3-40.1
				c2.5-2,6-2.3,8.7-0.5c2,1.3,3.3,3.5,3.3,5.9c0.1,2.4-1,4.5-2.8,6L270.3,74c-5.6,4.3-8.7,10.8-8.7,17.9v63.2h-11L250.5,86.2
				L250.5,86.2z M147.8,193.1h-15.7v-4.6c0-7.4,6-13.5,13.5-13.5h94.9h31h94.9c7.4,0,13.5,6,13.5,13.5v4.6h-15.7H147.8z
				 M327.4,483.1c-0.5,5.1-4.7,8.9-9.8,8.9H194.4c-5.1,0-9.3-3.8-9.8-8.9l-6-62.7h154.8L327.4,483.1z M339.3,358.3l-4,42.1H176.7
				L167,298.4h85.7c5.3,0,10-4,10.3-9.3c0.4-5.8-4.2-10.7-10-10.7h-87.9l-6.2-65.4h194.3l-6.2,65.4h-13.6c-5.3,0-10,4-10.3,9.3
				c-0.4,5.8,4.2,10.7,10,10.7h12L339.3,358.3z"/>
			<path d="M216.6,318.6c-20,0-36.3,16.3-36.3,36.3s16.3,36.3,36.3,36.3s36.3-16.3,36.3-36.3S236.6,318.6,216.6,318.6z M216.6,371.3
				c-9,0-16.3-7.3-16.3-16.3s7.3-16.3,16.3-16.3c9,0,16.3,7.3,16.3,16.3C232.9,364,225.6,371.3,216.6,371.3z"/>
			<path d="M306.5,307c-16.3,0-29.5,13.2-29.5,29.5c0,16.3,13.2,29.5,29.5,29.5s29.5-13.2,29.5-29.5C336,320.2,322.8,307,306.5,307z
				 M306.5,346c-5.2,0-9.5-4.3-9.5-9.5c0-5.2,4.3-9.5,9.5-9.5s9.5,4.3,9.5,9.5C316,341.8,311.7,346,306.5,346z"/>
			<path d="M283.8,292.3c0.2,0.6,0.6,1.2,0.9,1.7c0.4,0.5,0.8,1.1,1.2,1.5s1,0.9,1.5,1.2c0.5,0.4,1.1,0.7,1.7,0.9
				c0.6,0.2,1.2,0.5,1.9,0.6c0.6,0.1,1.3,0.2,2,0.2s1.3-0.1,2-0.2c0.6-0.1,1.3-0.3,1.9-0.6c0.6-0.2,1.2-0.6,1.7-0.9
				c0.5-0.4,1.1-0.8,1.5-1.2s0.9-1,1.2-1.5c0.4-0.5,0.7-1.1,0.9-1.7c0.2-0.6,0.5-1.2,0.6-1.9c0.1-0.6,0.2-1.3,0.2-2s-0.1-1.3-0.2-2
				c-0.1-0.6-0.3-1.3-0.6-1.9c-0.2-0.6-0.6-1.2-0.9-1.7c-0.4-0.5-0.8-1.1-1.2-1.5s-1-0.9-1.5-1.2c-0.5-0.4-1.1-0.7-1.7-0.9
				c-0.6-0.2-1.2-0.4-1.9-0.6c-1.3-0.3-2.6-0.3-3.9,0c-0.6,0.1-1.3,0.3-1.9,0.6c-0.6,0.2-1.2,0.6-1.7,0.9c-0.5,0.4-1.1,0.8-1.5,1.2
				c-1.9,1.9-2.9,4.4-2.9,7.1c0,0.6,0.1,1.3,0.2,2C283.3,291,283.5,291.7,283.8,292.3z"/>
		</g>
	</g>
</g>
</svg>
